<?xml version="1.0" encoding="utf-8"?>
<!-- Generator: Adobe Illustrator 25.1.0, SVG Export Plug-In . SVG Version: 6.00 Build 0)  -->
<svg version="1.1" id="Explosion" xmlns="http://www.w3.org/2000/svg" xmlns:xlink="http://www.w3.org/1999/xlink" x="0px" y="0px"
	 viewBox="0 0 283.5 283.5" style="enable-background:new 0 0 283.5 283.5;" xml:space="preserve">
<style type="text/css">
	.st0{stroke:#000000;stroke-width:1.593;stroke-miterlimit:10;}
</style>
<path class="st0" d="M231,126.3l-46.2,6.6l-31.6-34.3l-8,45.9l-42.4,19.4l41.2,21.8l5.4,46.3l33.5-32.4l45.7,9.2l-20.5-41.9
	L231,126.3z M219.9,202.8l-39.2-7.9L152,222.7l-4.6-39.7l-35.3-18.7l36.4-16.7l6.9-39.4l27.1,29.4L222,132l-19.6,34.8L219.9,202.8z"
	/>
<g>
	<polygon class="st0" points="139.2,208.6 138.9,208.2 77.7,255.4 90.1,179.2 15.1,160.8 82.5,123 50.1,52.8 121.7,81.9 156.3,12.9 
		178.2,87 253.8,71 220.5,118.6 228.6,117.4 266.4,63.4 182,81.2 157.6,-1.5 119,75.6 39.1,43.1 75.2,121.4 0,163.5 83.8,184.1 
		69.8,269.2 138.1,216.6 140.4,219.1 	"/>
	<polygon class="st0" points="231.7,146.2 229.2,150.6 269.1,183.5 229.3,185.9 232.3,192.1 283.5,188.9 	"/>
	<polygon class="st0" points="191.6,210 190.7,265.5 162,233.8 157.6,238.1 196,280.5 197.1,211.1 	"/>
</g>
</svg>
