<?xml version="1.0" encoding="utf-8"?>
<!-- Generator: Adobe Illustrator 25.1.0, SVG Export Plug-In . SVG Version: 6.00 Build 0)  -->
<svg version="1.1" id="Joker" xmlns="http://www.w3.org/2000/svg" xmlns:xlink="http://www.w3.org/1999/xlink" x="0px" y="0px"
	 viewBox="0 0 283.5 283.5" style="enable-background:new 0 0 283.5 283.5;" xml:space="preserve">
<style type="text/css">
	.st0{stroke:#000000;stroke-width:1.9368;stroke-miterlimit:10;}
	.st1{stroke:#000000;stroke-width:2.8161;stroke-miterlimit:10;}
</style>
<path class="st0" d="M86.5,178.1"/>
<path class="st0" d="M85.2,180.6c29.5-84.2,67.5-96.1,107.5-80.6c35.4,14.2,32.9,50,5.4,100l-4.9-1.7c2.8-15.2,7.6-35.2,6.1-46.1
	c-1.4-10.1-13.1-14.7-21-8.3c-15.1,12.3-31.4,38.8-44.7,60.4L85.2,180.6z"/>
<path class="st0" d="M72.4,94.7c-8.5,3-22.3,13.7-29.2,21.8l-3.2-1.6c3.8-12.1,9.3-22.6,17.7-30.6"/>
<path class="st1" d="M101.3,70.3c17.4,1.9,33.5,6.9,36,43.2"/>
<g>
	<path class="st0" d="M197.1,178.4c1.8-10,3.2-19.7,2.3-26.3c-1.4-10.1-13.1-14.7-21-8.3c-15.1,12.3-31.4,38.8-44.7,60.4l-48.5-23.7
		c14.4-41,30.8-64.8,48.4-76.7c-9-14.8-22.4-28.5-38.9-41.4c-6.9-5.4-14.4-10.1-22.5-13.6C25.8,29.2,0.5,61.8,6.6,100.4l4.4,2.3
		c3.2-10.5,8.4-18.2,16.1-22.7c11.3-6.6,25.7-3.3,33.1,7.4c37.2,34.9-12.3,79.2-12.3,79.2l25.7,27.2l15.5,3.4
		c12.5,2.7,24,8.8,33.2,17.6l9.5,9l35.2,6.9C166.9,230.7,170,185.8,197.1,178.4z"/>
	<path class="st0" d="M278,163.6c-8.3-18.6-25-32.1-44.7-37.5c-5.7-1.6-11.3-2.7-16.8-3.5c4.2,11.4,3,25.9-2.7,43
		c1.1-0.7,2.1-1.5,3.2-2.2c6.3-4.1,13.7-6.3,21.2-5.9c19.9,1.2,33.9,19.3,32.5,42.2l6.5,3.1C284.1,190.9,284.3,177.8,278,163.6z"/>
</g>
<path class="st0" d="M198.7,149.6c-3.2-11.8-8.4-22-26.5-21.5"/>
<path class="st0" d="M194.2,196.2c-4.1,0.7-7.6,4-8.5,8.1c-1.3,5.5,1.7,10.6,6.3,12.6l0.1-4.9c0.1-2.2,1.9-3.9,4.1-3.9l0,0
	c2.2,0.1,3.9,1.9,3.9,4.1l-0.1,4.9c4.1-1.5,7-5.3,7.1-9.9C207.4,200.4,201.3,195,194.2,196.2z"/>
<path class="st0" d="M272.1,200.4c-3.8,0.7-6.8,3.8-7.5,7.6c-0.9,4.7,1.7,8.9,5.7,10.6l0.1-4.3c0-1.9,1.6-3.4,3.5-3.4l0,0
	c1.9,0,3.4,1.6,3.4,3.5l-0.1,4.3c3.6-1.3,6.1-4.7,6.2-8.7C283.6,204,278.3,199.2,272.1,200.4z"/>
<path class="st0" d="M40.6,114.5c-3.7,0.4-6.7,3.4-7.2,7.1c-0.6,4.1,1.8,7.7,5.3,9.1l0-3.8c0-1.7,1.4-3.1,3-3.1l0,0
	c1.7,0,3.1,1.4,3.1,3l0,3.8c3.1-1.2,5.3-4.3,5.3-7.8C50,117.8,45.6,113.8,40.6,114.5z"/>
<path class="st0" d="M7.6,98.4c-3.8,0.7-6.7,3.8-7.4,7.6c-0.8,4.7,1.8,8.9,5.8,10.5l0.1-4.3c0-1.9,1.6-3.4,3.5-3.4l0,0
	c1.9,0,3.4,1.6,3.4,3.5l-0.1,4.3c3.5-1.3,6.1-4.7,6.1-8.7C19.1,101.9,13.7,97.2,7.6,98.4z"/>
</svg>
