<?xml version="1.0" encoding="utf-8"?>
<!-- Generator: Adobe Illustrator 25.1.0, SVG Export Plug-In . SVG Version: 6.00 Build 0)  -->
<svg version="1.1" id="Jump" xmlns="http://www.w3.org/2000/svg" xmlns:xlink="http://www.w3.org/1999/xlink" x="0px" y="0px"
	 viewBox="0 0 283.5 283.5" style="enable-background:new 0 0 283.5 283.5;" xml:space="preserve">
<circle cx="141.7" cy="225.7" r="57.8"/>
<path d="M181.8,67.8l-38.7-67c-0.6-1-2.1-1-2.7,0l-38.7,67c-0.8,1.5,0.9,3,2.3,2l14.4-10.6c4.7-3.5,11.4-0.3,11.8,5.5l4.6,78.8
	c0.2,3.2,2.8,5.7,6,5.7l0,0c3.2,0,5.8-2.4,6-5.6l6.2-79.3c0.5-5.8,7.1-8.8,11.8-5.4l14.7,10.8C180.9,70.9,182.6,69.3,181.8,67.8z"/>
<path d="M191,131.8l1.9-30.1c0-0.5-0.5-0.8-0.9-0.6l-27,13.4c-0.6,0.3-0.4,1.2,0.3,1.1l7-0.3c2.3-0.1,3.8,2.4,2.6,4.3l-15.5,26.6
	c-0.6,1.1-0.3,2.5,0.7,3.2l0,0c1,0.7,2.4,0.5,3.2-0.5l19.2-24.4c1.4-1.8,4.2-1.3,5,0.8l2.4,6.7C190.1,132.5,191,132.4,191,131.8z"/>
<path d="M92.5,131.8l-1.9-30.1c0-0.5,0.5-0.8,0.9-0.6l27,13.4c0.6,0.3,0.4,1.2-0.3,1.1l-7-0.3c-2.3-0.1-3.8,2.4-2.6,4.3l15.5,26.6
	c0.6,1.1,0.3,2.5-0.7,3.2l0,0c-1,0.7-2.4,0.5-3.2-0.5L101,124.4c-1.4-1.8-4.2-1.3-5,0.8l-2.4,6.7C93.4,132.5,92.5,132.4,92.5,131.8z
	"/>
</svg>
