<?xml version="1.0" encoding="utf-8"?>
<!-- Generator: Adobe Illustrator 25.1.0, SVG Export Plug-In . SVG Version: 6.00 Build 0)  -->
<svg version="1.1" id="Kill" xmlns="http://www.w3.org/2000/svg" xmlns:xlink="http://www.w3.org/1999/xlink" x="0px" y="0px"
	 viewBox="0 0 283.5 283.5" style="enable-background:new 0 0 283.5 283.5;" xml:space="preserve">
<style type="text/css">
	.st0{fill:none;stroke:#000000;stroke-width:2.5324;stroke-miterlimit:10;}
</style>
<path class="st0" d="M105,152.3"/>
<path class="st0" d="M177.8,151.6"/>
<path d="M141.7,0C63.4,0,0,63.4,0,141.7s63.4,141.7,141.7,141.7S283.5,220,283.5,141.7S220,0,141.7,0z M105,152.3
	c-3.3,3-8.5,2.5-11.7-0.6l-16.7-16.7c-2.7-2.7-7-2.7-9.7,0l-17,17c-3.3,3.3-8.8,3.2-12-0.3c-3-3.3-2.5-8.5,0.6-11.7l16.7-16.7
	c2.7-2.7,2.7-7,0-9.7l-17-17c-3.3-3.3-3.2-8.8,0.3-12c3.3-3,8.5-2.5,11.7,0.6l16.7,16.7c2.7,2.7,7,2.7,9.7,0l17-17
	c3.3-3.3,8.8-3.2,12,0.3c3,3.3,2.5,8.5-0.6,11.7l-16.7,16.7c-2.7,2.7-2.7,7,0,9.7l17,17C108.7,143.6,108.5,149.1,105,152.3z
	 M160.6,203.5h-37.7c-3.8,0-5.5-4.7-2.7-7.1c5.2-4.3,12.9-7.1,21.5-7.1c8.6,0,16.3,2.8,21.5,7.1
	C166.1,198.7,164.3,203.5,160.6,203.5z M233.2,151.6l-16.7-16.7c-2.7-2.7-7-2.7-9.7,0l-17,17c-3.3,3.3-8.8,3.2-12-0.3
	c-3-3.3-2.5-8.5,0.6-11.7l16.7-16.7c2.7-2.7,2.7-7,0-9.7l-17-17c-3.3-3.3-3.2-8.8,0.3-12c3.3-3,8.5-2.5,11.7,0.6l16.7,16.7
	c2.7,2.7,7,2.7,9.7,0l17-17c3.3-3.3,8.8-3.2,12,0.3c3,3.3,2.5,8.5-0.6,11.7l-16.7,16.7c-2.7,2.7-2.7,7,0,9.7l17,17
	c3.3,3.3,3.2,8.8-0.3,12C241.6,155.3,236.4,154.8,233.2,151.6z"/>
</svg>
