<?xml version="1.0" encoding="utf-8"?>
<!-- Generator: Adobe Illustrator 25.1.0, SVG Export Plug-In . SVG Version: 6.00 Build 0)  -->
<svg version="1.1" id="Levi" xmlns="http://www.w3.org/2000/svg" xmlns:xlink="http://www.w3.org/1999/xlink" x="0px" y="0px"
	 viewBox="0 0 283.5 283.5" style="enable-background:new 0 0 283.5 283.5;" xml:space="preserve">
<style type="text/css">
	.st0{fill:none;stroke:#000000;stroke-width:2.2281;stroke-miterlimit:10;}
</style>
<circle class="st0" cx="141.7" cy="141.7" r="141.7"/>
<path class="st0" d="M141.7,0c-38,0-72.5,15-98,39.4C30.1,61.2,22.1,87,22.1,114.6c0,78.3,63.5,141.7,141.7,141.7
	c38,0,72.5-15,98-39.4c13.7-21.8,21.6-47.6,21.6-75.2C283.5,63.5,220,0,141.7,0z"/>
<circle class="st0" cx="82.6" cy="100.5" r="48.2"/>
<circle class="st0" cx="223.8" cy="140.7" r="19.8"/>
<circle class="st0" cx="259.5" cy="151.6" r="10.9"/>
<circle class="st0" cx="237.4" cy="177.9" r="8.9"/>
<circle class="st0" cx="78.1" cy="163.1" r="8.7"/>
<circle class="st0" cx="88.7" cy="33.8" r="10.7"/>
<circle class="st0" cx="153.3" cy="47" r="25.7"/>
<g>
	<path d="M43.8,38.5"/>
	<path d="M261.9,216c-25.5,24.4-60,39.4-98,39.4c-78.3,0-141.7-63.5-141.7-141.7c0-27.6,7.9-53.4,21.6-75.2
		C16.8,64.3,0,100.6,0,140.8c0,78.3,63.5,141.7,141.7,141.7c52.3,0,97.9-28.3,122.5-70.4C263.4,213.4,262.6,214.7,261.9,216z"/>
</g>
</svg>
