<?xml version="1.0" encoding="utf-8"?>
<!-- Generator: Adobe Illustrator 25.1.0, SVG Export Plug-In . SVG Version: 6.00 Build 0)  -->
<svg version="1.1" id="Randomize" xmlns="http://www.w3.org/2000/svg" xmlns:xlink="http://www.w3.org/1999/xlink" x="0px" y="0px"
	 viewBox="0 0 283.5 283.5" style="enable-background:new 0 0 283.5 283.5;" xml:space="preserve">
<path d="M186.2,6.1c-18.4-6.4-38.2-7.6-57.3-4.2C87,9.3,48.9,17.2,28.4,26.7C11.5,34-0.2,49.8-1.9,68.1
	c-2.9,30.6,3.6,76.9,9.2,121.8c1.1,6.9,3.8,13.5,8,19.1c23.2,31.6,49.2,55.1,78.1,70.3c9.3,4.9,30.1,4.1,30.1,4.1
	c42.8-11.6,82.8-26.3,118.6-45.8c12.7-6.9,21.6-19.1,24.2-33.3c6.1-33.9,16.7-99.2,12.9-129.7c-1.2-10-5.8-19.3-13-26.3
	C242.1,30.9,215.9,16.4,186.2,6.1z M211.6,31.9c11.5,0,20.7,3.7,20.7,8.2s-9.3,8.2-20.7,8.2c-11.5,0-20.7-3.7-20.7-8.2
	S200.2,31.9,211.6,31.9z M165.6,8.7c12.4,0,22.5,3.8,22.5,8.5s-10.1,8.5-22.5,8.5s-22.5-3.8-22.5-8.5S153.2,8.7,165.6,8.7z
	 M188.1,53.2c0,4.4-9.7,7.9-21.7,7.9c-12,0-21.7-3.5-21.7-7.9s9.7-7.9,21.7-7.9S188.1,48.8,188.1,53.2z M118.4,20.5
	c13.7,0,24.8,3.7,24.8,8.2s-11.1,8.2-24.8,8.2s-24.8-3.7-24.8-8.2S104.7,20.5,118.4,20.5z M28.5,129c-5.9,1.6-13.7-7.7-17.3-20.7
	s-1.7-25,4.3-26.6c5.9-1.6,13.7,7.7,17.3,20.7C36.3,115.5,34.4,127.4,28.5,129z M42.4,40.9c0-5,12-9,26.8-9c14.8,0,26.8,4,26.8,9
	s-12,9-26.8,9C54.5,49.9,42.4,45.9,42.4,40.9z M78.5,244.9c-5.9,1.6-13.7-7.7-17.3-20.7c-3.6-13.1-1.7-25,4.3-26.6
	c5.9-1.6,13.7,7.7,17.3,20.7C86.3,231.4,84.4,243.3,78.5,244.9z M115.1,75c-12.9,0-23.4-3.5-23.4-7.7c0-4.3,10.5-7.7,23.4-7.7
	c12.9,0,23.4,3.5,23.4,7.7C138.4,71.5,128,75,115.1,75z M172.4,241.2c-8.2,10.8-20.6,15.2-27.7,9.8c-7.1-5.4-6.1-18.5,2.2-29.3
	c8.2-10.8,20.6-15.2,27.7-9.8C181.6,217.3,180.6,230.4,172.4,241.2z M210,187c-8.2,10.8-20.6,15.2-27.7,9.8
	c-7.1-5.4-6.1-18.5,2.2-29.3c8.2-10.8,20.6-15.2,27.7-9.8C219.2,163.1,218.2,176.2,210,187z M247.5,135.2
	c-8.2,10.8-20.6,15.2-27.7,9.8c-7-5.4-6.1-18.5,2.2-29.3c8.2-10.8,20.6-15.2,27.7-9.8C256.6,111.3,255.7,124.4,247.5,135.2z"/>
</svg>
