<?xml version="1.0" encoding="utf-8"?>
<!-- Generator: Adobe Illustrator 25.1.0, SVG Export Plug-In . SVG Version: 6.00 Build 0)  -->
<svg version="1.1" id="Repro" xmlns="http://www.w3.org/2000/svg" xmlns:xlink="http://www.w3.org/1999/xlink" x="0px" y="0px"
	 viewBox="0 0 283.5 283.5" style="enable-background:new 0 0 283.5 283.5;" xml:space="preserve">
<circle cx="147.3" cy="60.2" r="60.2"/>
<path d="M239.7,86.9c-9-5.2-18.9-7.7-28.6-7.9c-1.3,5.9-3.4,11.7-6.6,17.1c-11.3,19.8-32.2,30.8-53.5,30.4c-5.4,25,5.7,51.6,29,64.9
	c28.9,16.5,65.6,6.4,82.1-22.5C278.6,140.1,268.5,103.3,239.7,86.9z"/>
<g>
	<path d="M213.6,204.2c-12.2,0.7-24.7-1.9-36.2-8.4c-25.3-14.4-37.3-43.3-31.5-70.4l0,0c-10.5-0.2-21.2-3-31-8.6
		c-9.8-5.6-17.5-13.3-23.1-22.2c-23.2,6.7-43.9,22.1-56.9,44.8c-26.4,46.2-10.2,105.1,36,131.4s105.1,10.2,131.4-36
		C208.1,225,211.7,214.6,213.6,204.2z"/>
</g>
</svg>
