<?xml version="1.0" encoding="utf-8"?>
<!-- Generator: Adobe Illustrator 25.1.0, SVG Export Plug-In . SVG Version: 6.00 Build 0)  -->
<svg version="1.1" id="Spin" xmlns="http://www.w3.org/2000/svg" xmlns:xlink="http://www.w3.org/1999/xlink" x="0px" y="0px"
	 viewBox="0 0 283.5 283.5" style="enable-background:new 0 0 283.5 283.5;" xml:space="preserve">
<style type="text/css">
	.st0{fill:none;stroke:#000000;stroke-width:3.0079;stroke-miterlimit:10;}
</style>
<circle cx="149.8" cy="141.7" r="98"/>
<path class="st0" d="M8.1,141.7"/>
<g>
	<path class="st0" d="M49.6,41.5c55.3-55.3,145.1-55.3,200.4,0"/>
	<path d="M263,53.3l-14.9-24.7c-0.3-0.5-0.9-0.5-1.3-0.2V31c0,4-3.3,7.3-7.3,7.3H237c-0.4,0.4-0.3,1,0.2,1.3l24.7,14.9
		C262.6,54.9,263.4,54,263,53.3z"/>
</g>
<g>
	<path class="st0" d="M250.1,241.9c-55.3,55.3-145.1,55.3-200.4,0"/>
	<path d="M36.7,230.2l14.9,24.7c0.3,0.5,0.9,0.5,1.3,0.2v-2.5c0-4,3.3-7.3,7.3-7.3h2.5c0.4-0.4,0.3-1-0.2-1.3L37.8,229
		C37.1,228.6,36.3,229.4,36.7,230.2z"/>
</g>
</svg>
