<?xml version="1.0" encoding="utf-8"?>
<!-- Generator: Adobe Illustrator 25.1.0, SVG Export Plug-In . SVG Version: 6.00 Build 0)  -->
<svg version="1.1" id="Split" xmlns="http://www.w3.org/2000/svg" xmlns:xlink="http://www.w3.org/1999/xlink" x="0px" y="0px"
	 viewBox="0 0 283.5 283.5" style="enable-background:new 0 0 283.5 283.5;" xml:space="preserve">
<circle cx="149.2" cy="214.5" r="27.2"/>
<path d="M201.5,27.9l7.6-12.5C181.4,0.8,148.6-4.2,115.8,3.8C44.3,21.1,0.3,93,17.7,164.5c7.9,32.8,27.4,59.7,53,77.7l15.8-25.8
	c2.3,0.1,4.7-0.2,7.1-0.7c14.6-3.5,23.6-18.2,20-32.8c-0.6-2.4-1.5-4.6-2.6-6.6l18.6-30.5c4.8,12.6,18.3,20,31.8,16.8
	c14.6-3.5,23.6-18.2,20-32.8c-3.3-13.5-16-22.1-29.4-20.6l22.4-36.7c6.5,7.2,16.6,10.7,26.7,8.3c14.6-3.5,23.6-18.2,20-32.8
	C218.6,37.7,210.8,30.3,201.5,27.9z"/>
<circle cx="234.8" cy="256.3" r="27.2"/>
<circle cx="230.3" cy="164.1" r="27.2"/>
</svg>
