<?xml version="1.0" encoding="utf-8"?>
<!-- Generator: Adobe Illustrator 25.1.0, SVG Export Plug-In . SVG Version: 6.00 Build 0)  -->
<svg version="1.1" id="Swap" xmlns="http://www.w3.org/2000/svg" xmlns:xlink="http://www.w3.org/1999/xlink" x="0px" y="0px"
	 viewBox="0 0 283.5 283.5" style="enable-background:new 0 0 283.5 283.5;" xml:space="preserve">
<circle cx="66" cy="148.1" r="58.4"/>
<path d="M195.6,25.3l-73.1,73.1c-1.9,1.9-4.9,1.9-6.8,0l0,0c-1.9-1.9-1.9-4.9,0-6.8l73.1-73.1L195.6,25.3z"/>
<path d="M208.6,0.4l-24,11.5c-2.4,1.1-2.9,4.3-1.1,6.2l12.6,12.6c1.9,1.9,5.1,1.3,6.2-1.1l11.5-24C215.3,2.2,211.9-1.2,208.6,0.4z"
	/>
<circle cx="215.4" cy="137.6" r="58.4"/>
<path d="M92.6,267.1l73.1-73.1c1.9-1.9,1.9-4.9,0-6.8l0,0c-1.9-1.9-4.9-1.9-6.8,0l-73.1,73.1L92.6,267.1z"/>
<path d="M67.7,280.2l11.5-24c1.1-2.4,4.3-2.9,6.2-1.1l12.6,12.6c1.9,1.9,1.3,5.1-1.1,6.2l-24,11.5C69.5,286.9,66.1,283.4,67.7,280.2
	z"/>
</svg>
