<?xml version="1.0" encoding="utf-8"?>
<!-- Generator: Adobe Illustrator 25.1.0, SVG Export Plug-In . SVG Version: 6.00 Build 0)  -->
<svg version="1.1" id="Слой_2_1_" xmlns="http://www.w3.org/2000/svg" xmlns:xlink="http://www.w3.org/1999/xlink" x="0px"
	 y="0px" viewBox="0 0 595.3 595.3" style="enable-background:new 0 0 595.3 595.3;" xml:space="preserve">
<g>
	<path d="M319.5,389.9L252.5,376c-7.5,31-9.6,62-4.6,92.8c8.3,27.3,9.1,57.8,6,90.1c22.2,15.2,44.1,15.7,65.7,0
		c6.8-13.5,10.3-28.1,10.3-43.8c0-8.4-1.8-16.7-5.1-24.5C312.5,462.3,311.2,428.5,319.5,389.9z"/>
	<path d="M341.6,170.5c-32-13.3-63.4-11.5-94.2,7.4c15.5,23.4,24.5,52.5,29,85.6c1.2,8.7,0.8,17.5-1.1,26.1
		c-6.4,29.1-17.1,61.2-29.3,90.5c-2,4.8,1.7,10,6.9,9.8c23-1,45.8,2.8,66.8,16.5c2.8,1.8,6.4-0.4,6-3.7c-2.7-25.2-3-52.8,5.4-86.8
		c4-16.4,6.4-33.1,6.9-50C339.6,195.9,337,201.6,341.6,170.5z"/>
	<path d="M474.6,142.2c-64.7,49-288.4,81.3-355.1,40.5c-6.3-3.9-9-11.7-6.4-18.6c12.5-34,27.9-65.5,46.8-94
		C187,28.7,232.3,2.3,281.7,0.2c13.6-0.6,27.5,0.2,41.8,2.5c21.9,3.4,42.7,11.6,61.3,23.7c34.3,22.3,65.1,50.8,93.3,84.3
		C486.1,120.2,484.6,134.6,474.6,142.2z"/>
	<path d="M437,589c-48.5,10.1-174.5,7.7-234.9-5c-5.5-1.2-7.4-8.1-2.8-11.4c17.8-12.5,48.1-11.8,80.2-15.8
		c13.1-1.6,25.3-7.3,34.9-16.5l18.7-25.2c8.4-8,19.9-12.3,31.5-11.2c1.8,0.2,3.7,0.4,5.6,0.7c14.9,2.1,28.2,10.3,36.6,22.8
		c8,12,12.1,24.2,10.9,34.8c-0.5,5.1,2.9,9.8,7.9,11.1c5.2,1.3,11,2.2,13.4,3.8C444,580.2,442.8,587.8,437,589z"/>
</g>
</svg>
