<?xml version="1.0" encoding="utf-8"?>
<!-- Generator: Adobe Illustrator 25.1.0, SVG Export Plug-In . SVG Version: 6.00 Build 0)  -->
<svg version="1.1" id="Слой_2_1_" xmlns="http://www.w3.org/2000/svg" xmlns:xlink="http://www.w3.org/1999/xlink" x="0px"
	 y="0px" viewBox="0 0 595.3 595.3" style="enable-background:new 0 0 595.3 595.3;" xml:space="preserve">
<g>
	<path d="M275.8,389.9l67.1-13.9c7.5,31,9.6,62,4.6,92.8c-8.3,27.3-9.1,57.8-6,90.1c-22.2,15.2-44.1,15.7-65.7,0
		c-6.8-13.5-10.3-28.1-10.3-43.8c0-8.4,1.8-16.7,5.1-24.5C282.8,462.3,284.1,428.5,275.8,389.9z"/>
	<path d="M253.7,170.5c32-13.3,63.4-11.5,94.2,7.4c-15.5,23.4-24.5,52.5-29,85.6c-1.2,8.7-0.8,17.5,1.1,26.1
		c6.4,29.1,17.1,61.2,29.3,90.5c2,4.8-1.7,10-6.9,9.8c-23-1-45.8,2.8-66.8,16.5c-2.8,1.8-6.4-0.4-6-3.7c2.7-25.2,3-52.8-5.4-86.8
		c-4-16.4-6.4-33.1-6.9-50C255.7,195.9,258.3,201.6,253.7,170.5z"/>
	<path d="M120.7,142.2c64.7,49,288.4,81.3,355.2,40.5c6.3-3.9,9-11.7,6.4-18.6c-12.5-34-27.9-65.5-46.8-94
		C408.2,28.7,363,2.3,313.6,0.2c-13.6-0.6-27.5,0.2-41.8,2.5C249.9,6,229,14.3,210.5,26.3c-34.3,22.3-65.1,50.8-93.3,84.3
		C109.2,120.2,110.7,134.6,120.7,142.2z"/>
	<path d="M158.3,589c48.6,10.1,174.5,7.7,234.9-5c5.5-1.2,7.4-8.1,2.8-11.4c-17.8-12.5-48.1-11.8-80.2-15.8
		c-13.1-1.6-25.3-7.3-34.9-16.5l-18.7-25.2c-8.4-8-19.9-12.3-31.5-11.2c-1.8,0.2-3.7,0.4-5.6,0.7c-14.9,2.1-28.2,10.3-36.6,22.8
		c-8,12-12.1,24.2-10.9,34.8c0.6,5.1-2.9,9.8-7.9,11.1c-5.2,1.3-11,2.2-13.4,3.8C151.3,580.2,152.5,587.8,158.3,589z"/>
</g>
</svg>
