<?xml version="1.0" encoding="utf-8"?>
<!-- Generator: Adobe Illustrator 25.1.0, SVG Export Plug-In . SVG Version: 6.00 Build 0)  -->
<svg version="1.1" id="Слой_1" xmlns="http://www.w3.org/2000/svg" xmlns:xlink="http://www.w3.org/1999/xlink" x="0px" y="0px"
	 viewBox="0 0 595.3 595.3" style="enable-background:new 0 0 595.3 595.3;" xml:space="preserve">
<style type="text/css">
	.st0{fill:#111111;}
</style>
<g id="Слой_3">
	<g>
		<path class="st0" d="M180.5,226.6c-16.5,145.9-6.3,238.8,33.7,274.1c14.4,6.4,26.9,6.6,38,1.2c6.3-3,13.9-0.9,17.4,5.1
			c3.5,5.9,4.2,13,2.9,21.2c-0.9,5.8-4.5,11-9.7,13.8c-38.5,21.2-72,15.5-96.2-40.6c-25-78-19.7-170.6-3.1-274.8H180.5L180.5,226.6z
			"/>
		<path class="st0" d="M263.4,256.6c-84,20.5-136.6,5.5-176.7-23.6c-4.2-3.1-6.1-8.5-4.5-13.4c7.7-24.4,27.9-41,65-46.8
			c27.2-4.6,52.9-1.5,76.7,11.3c4.2,2.3,8.1,5.3,11.4,8.8c23.6,24.8,35.4,43.3,35.1,55.2C270.2,252.1,267.3,255.6,263.4,256.6z"/>
		<path d="M249.3,533.4c-6.3-2.8-12.9-4-19.6-3.3c-5.2,0.6-9.8,3.9-11.7,8.8l-2.7,6.7c-1.3,3.3-5.6,3.9-7.9,1.2
			c-23.6-26.8-16.9-87.3,20.1-181.6l-14.4-3.3c-34.7,64.2-66.2,175.9-44,210.8c21.8,33,75.6,34.9,86.2-28.2
			C256,540,253.6,535.3,249.3,533.4z"/>
		<path d="M289.9,373c-48.1,17.4-100.2,12-148.9-2.3c-6.5-1.9-9.7-8.7-7.1-14.9c7.7-18.4,27.4-35.7,50.2-48.7
			c13.6-5.9,26.6-7.8,39.4-6.9c21.6,1.6,41.5,12.2,56.1,28.2c9.1,10,15,19.1,18.1,26.9C300.6,362.5,297.1,370.4,289.9,373z"/>
		<path d="M247,528.2c-15.4,7.7-17.3,18.6,4.6,35.3c3.9,3,8.6,4.8,13.4,5.1c82.2,5.1,120.4-51.2,138.6-121.4l-15.8-4.4
			c-17.5,73-59.1,115.4-128.2,84.9C255.6,526,251,526.2,247,528.2z"/>
		<path d="M446.1,457.1c-38.2,9.2-79.2-6.6-111.4-37.7c-2.2-2.2-2.4-5.8-0.4-8.1c13-14.6,32.5-22,49.9-26.3
			c15.6-3.8,29.4-0.7,41.2,10.2c12.7,13.5,22.9,32.1,27.7,49.8C454.7,450.3,451.4,455.8,446.1,457.1z"/>
		<path d="M228.9,518.3c-11.1,23.5-1,34.9,33.5,32.3c4.3-0.3,8.5-1.9,11.9-4.6c48.3-38.3,62.1-103.5,81.5-206.3
			c16.5-97.7,13.4-177.6-3-245.5h-29.3c26.2,78.3,24.1,160.4,0,245.5c-21.3,110.7-49.9,169.7-86.5,173
			C233.5,513,230.4,515.1,228.9,518.3z"/>
		<path d="M453.5,131.5c-86.8,28.4-150.7,21.4-209.4,6.3c-7.3-1.9-12.7-8.3-12.9-15.8c-1-30.2,26.9-59.7,69.2-89.9
			c0.5-0.3,1-0.7,1.5-1c26.8-15.8,55.9-18,88.1-0.2c0.8,0.4,1.6,0.9,2.3,1.5c40.2,30.9,67.3,57.9,72.6,78.4
			C467.1,119.5,462.2,128.6,453.5,131.5z"/>
	</g>
</g>
</svg>
