<?xml version="1.0" encoding="utf-8"?>
<!-- Generator: Adobe Illustrator 25.1.0, SVG Export Plug-In . SVG Version: 6.00 Build 0)  -->
<svg version="1.1" id="Слой_1" xmlns="http://www.w3.org/2000/svg" xmlns:xlink="http://www.w3.org/1999/xlink" x="0px" y="0px"
	 viewBox="0 0 595.3 595.3" style="enable-background:new 0 0 595.3 595.3;" xml:space="preserve">
<style type="text/css">
	.st0{fill:#111111;}
</style>
<g id="Слой_3">
	<g>
		<path class="st0" d="M367.1,226.5c16.5,145.9,6.3,238.8-33.7,274.1c-14.4,6.4-26.9,6.6-38,1.2c-6.3-3-13.9-0.9-17.4,5.1
			c-3.5,5.9-4.2,13-2.9,21.2c0.9,5.8,4.5,11,9.7,13.8c38.5,21.2,72,15.5,96.2-40.6c25-78,19.7-170.6,3-274.8L367.1,226.5
			L367.1,226.5z"/>
		<path class="st0" d="M284.3,256.5c84,20.5,136.6,5.5,176.7-23.6c4.2-3.1,6.1-8.5,4.5-13.4c-7.7-24.4-27.9-41-65-46.8
			c-27.2-4.6-52.9-1.5-76.7,11.3c-4.2,2.3-8,5.3-11.4,8.8c-23.6,24.8-35.4,43.3-35.1,55.2C277.4,252,280.3,255.5,284.3,256.5z"/>
		<path d="M298.4,533.3c6.3-2.8,12.9-4,19.6-3.3c5.2,0.6,9.8,3.9,11.7,8.8l2.7,6.7c1.3,3.3,5.6,3.9,7.9,1.2
			c23.7-26.8,17-87.3-20-181.5l14.4-3.3c34.7,64.2,66.2,175.9,44,210.8c-21.8,33-75.6,34.9-86.2-28.2
			C291.6,539.9,294.1,535.2,298.4,533.3z"/>
		<path d="M257.7,372.9c48.1,17.4,100.2,12,148.9-2.3c6.5-1.9,9.7-8.7,7.1-14.9c-7.7-18.4-27.4-35.7-50.2-48.7
			c-13.6-5.9-26.6-7.8-39.4-6.9c-21.6,1.6-41.5,12.2-56.1,28.2c-9.1,10-15,19.1-18.1,26.9C247.1,362.4,250.5,370.3,257.7,372.9z"/>
		<path d="M300.6,528.1c15.4,7.7,17.3,18.6-4.6,35.3c-3.9,3-8.6,4.8-13.5,5.1c-82.2,5.1-120.4-51.3-138.6-121.4l15.8-4.4
			c17.6,73,59.1,115.4,128.2,84.9C292,525.9,296.7,526.1,300.6,528.1z"/>
		<path d="M101.5,457c38.3,9.2,79.2-6.6,111.4-37.7c2.2-2.2,2.4-5.8,0.4-8.1c-13-14.6-32.5-22-49.9-26.3
			c-15.6-3.8-29.4-0.7-41.2,10.2c-12.7,13.5-22.9,32.1-27.7,49.8C93,450.2,96.2,455.7,101.5,457z"/>
		<path d="M318.7,518.2c11.1,23.5,1,34.9-33.5,32.3c-4.3-0.3-8.5-1.9-11.9-4.6c-48.3-38.3-62.1-103.5-81.5-206.3
			c-16.4-97.7-13.4-177.6,3-245.5h29.3c-26.2,78.3-24.1,160.4,0,245.5c21.3,110.7,49.9,169.7,86.5,173
			C314.1,512.9,317.2,515,318.7,518.2z"/>
		<path d="M94.1,131.4c86.8,28.4,150.7,21.4,209.4,6.3c7.3-1.9,12.7-8.3,12.9-15.8c1-30.2-26.9-59.7-69.2-89.9c-0.5-0.3-1-0.7-1.4-1
			C219,15.2,190,13,157.7,30.8c-0.8,0.4-1.6,0.9-2.3,1.5c-40.1,30.9-67.2,57.9-72.6,78.3C80.5,119.4,85.5,128.5,94.1,131.4z"/>
	</g>
</g>
</svg>
