<?xml version="1.0" encoding="utf-8"?>
<!-- Generator: Adobe Illustrator 25.1.0, SVG Export Plug-In . SVG Version: 6.00 Build 0)  -->
<svg version="1.1" id="Слой_2" xmlns="http://www.w3.org/2000/svg" xmlns:xlink="http://www.w3.org/1999/xlink" x="0px" y="0px"
	 viewBox="0 0 595.28 595.28" style="enable-background:new 0 0 595.28 595.28;" xml:space="preserve">
<g>
	<path d="M323.47,585.73c6.49,3.52,36.81,5.75,41.36-14.1c-98.42-124.01-7.42-286.72-7.42-434.1l-29.67-2.97
		C333.67,289.36,222.89,455.04,323.47,585.73z"/>
	<path d="M233.3,133.76c38.16,6.77,71.25,19.85,99.71,29.7c50.71,17.56,92.47,15.2,116.56,22.32c5.52,1.63,9.11-0.68,9.44-7.55
		c2.01-42.16,4.57-112.05-42.83-158.5C393.82-0.01,368.65-4.21,341.25,3.9c-73.18,35.62-100.52,99.72-110.31,118.7
		C228.53,127.27,228.63,132.93,233.3,133.76z"/>
	<path d="M348.91,591.81c-3.34,0-13.35,1.24-12.36-14.1c14.71-3.59,24.6-23,28.62-35.86c2.51-12.97,4.76-44.26,3.15-66.95
		l13.72-1.11C377.47,519.61,388.73,564.49,348.91,591.81z"/>
	<path d="M336.21,448.96c-5.51,28.63,64.55,49.73,86.67,17.36c1.19-36.57-19.36-62.46-32.87-65.79
		C376.5,397.2,344.02,417.27,336.21,448.96z"/>
	<path d="M322.95,595.24c19.22,0.97,16.25-16.25,16.25-16.25c-49.14-60.31-99.03-148.03-121.84-199.96
		c-12.61-6.12-14.47,7.97-14.47,7.97C233.31,462.3,293.03,584.33,322.95,595.24z"/>
	<path d="M151.34,429.97c29.67-3.71,125.12-59.84,126.86-90.75c-1.2-2.16-2.88-4.43-4.97-6.75
		c-27.49-23.42-83.31-52.27-113.23-34.05c-39.2,30.72-22.51,92.47-11.2,124.56C149.68,425.5,150.54,427.84,151.34,429.97z"/>
</g>
</svg>
