<?xml version="1.0" encoding="utf-8"?>
<!-- Generator: Adobe Illustrator 25.1.0, SVG Export Plug-In . SVG Version: 6.00 Build 0)  -->
<svg version="1.1" id="Слой_2" xmlns="http://www.w3.org/2000/svg" xmlns:xlink="http://www.w3.org/1999/xlink" x="0px" y="0px"
	 viewBox="0 0 595.28 595.28" style="enable-background:new 0 0 595.28 595.28;" xml:space="preserve">
<g>
	<path d="M271.81,585.73c-6.49,3.52-36.81,5.75-41.36-14.1c98.42-124.01,7.42-286.72,7.42-434.1l29.67-2.97
		C261.61,289.36,372.39,455.04,271.81,585.73z"/>
	<path d="M361.98,133.76c-38.16,6.77-71.25,19.85-99.71,29.7c-50.71,17.56-92.47,15.2-116.56,22.32c-5.52,1.63-9.11-0.68-9.44-7.55
		c-2.01-42.16-4.57-112.05,42.83-158.5C201.45-0.01,226.62-4.21,254.03,3.9c73.18,35.62,100.52,99.72,110.31,118.7
		C366.75,127.27,366.64,132.93,361.98,133.76z"/>
	<path d="M246.36,591.81c3.34,0,13.35,1.24,12.36-14.1c-14.71-3.59-24.6-23-28.62-35.86c-2.51-12.97-4.76-44.26-3.15-66.95
		l-13.72-1.11C217.8,519.61,206.55,564.49,246.36,591.81z"/>
	<path d="M259.07,448.96c5.51,28.63-64.55,49.73-86.67,17.36c-1.19-36.57,19.36-62.46,32.87-65.79
		C218.78,397.2,251.26,417.27,259.07,448.96z"/>
	<path d="M272.32,595.24c-19.22,0.97-16.25-16.25-16.25-16.25c49.14-60.31,99.03-148.03,121.84-199.96
		c12.61-6.12,14.47,7.97,14.47,7.97C361.97,462.3,302.25,584.33,272.32,595.24z"/>
	<path d="M443.94,429.97c-29.67-3.71-125.12-59.84-126.86-90.75c1.2-2.16,2.88-4.43,4.97-6.75c27.49-23.42,83.31-52.27,113.23-34.05
		c39.2,30.72,22.51,92.47,11.2,124.56C445.59,425.5,444.73,427.84,443.94,429.97z"/>
</g>
</svg>
